<svg xmlns="http://www.w3.org/2000/svg" viewBox="0 0 512 512" class="matts-head"><path d="M461.6 512c.1-1.6-7-4.2-23.3-8.1-3.5-2.2-6.3-4.5-15-7-9.8-3.6-10.3-2.7-11.2-7.8-2.6-3.1-2.8 4.6-10.5.5-4.8-1.7-5.2-2.3-5.9-6.7-1-7.1-4.8-12-10.7-13.7-7.7-1.9-17.3-17.5-24.3-16.2-6.7-1.5-15-11.8-22-10.2-3.3 0-4.9-.9-8.4-4.6-4.3-4.6-4.4-4.8-10.1-4-4.9.7-5.8.5-6.3-1.2-1-3.4-4.2-8.7-5.8-10-4.4.2-9-67.2 1-69.7 5.2-7.8 10.1-20.3 12.6-30.3 2-10.1 2.6-10.9 6-10.1 13 3.7 11.3-29.2 13-40.3 1-5.3 2.3-21.5 2.5-35.4.1-2.3.6-4.2 1-4.2.5 0 .9-.7.9-1.6.9-3.8 14.9-25.7 11.9-25.7-1-1.5.6-5.7 1.8-5 1.6 1 1.2-3.3-.3-4.9-1.1-1.1-1.1-1.7.1-2.4 1.8-1.1 2-23.6.2-27.1-1.7-3.4.3-2.7-1.4-7.1-1.6-5.6-1.2-9.9-4.9-15.2-1.7-2.4-2.7-5.1-2.5-5.9.3-.9 0-1.8-.8-2.2-.9-.3-1.4-1.8-1-3.9 1.4-3.1-4-8.3-3.5-10.7.3-.3.1-.7-.6-.7-1.3.3-14.1-16.8-15.1-16.8-.6-.2-1-1.1-1-2 .3-1.6-4.3-4-4.5-5.1 0-.5 1-1 2.3-1.4 2.8-.6 3.7-6.6-.6-1.9-2.7 2.6-2.9 2.6-4.9.7-1.4-1.6-1.6-2.3-.5-2.6.7-.3 1-1.1.6-1.8-.8-2.5 3.2 1.9 2.3-1.8-1.5-3.5-8-.8-10.3-5.2-2.6-3.1-2.6-3.3-.7-4.1 1.2-.5 1.5-.9.8-.9-2.9-.2-1.4-2.4 1.6-2.4 2.2 0 2.7-.3 1.8-1.2-1.3-2.2-11.6 3.5-12.6.6-.8-.9-1.9-1.6-2.5-1.6-1.2.2-15.4-9.4-16.6-9.1-4.5-2.8-10.4-9.5-16.4-6.7-3.1.9-7.5.5-21.4-2.2-15-2.8-17.8-3.1-19.4-1.8-.9.9-2.3 1.6-2.8 1.6-1.3 3.2-16-22.9-16.3-17.5 1.6 3.3 8.6 10.4 6.9 14.9-.2 2.4-4.6 1.1-5.3-1.6-1.1-3.7-3.3-1.8-5.3-5.2-3-3.9-3.8-.6-.3 2.4 3.6 4 2.9 7-1.6 7-4 0-10 4.4-7.7 5.8 3.2 2-4 6.6-17.8 11.3-11.5 4-15.4 6-24.7 12.8-13.3 9.6-13 9.4-16.7 10.2-6.5 1.7-13.9 12.1-3.4 4.1 10.4-7.8 4.1 2.3-4.2 5.8-2.6 1.2-4.9 2.8-4.9 3.4s-2 1-4.5 1c-5.6-.1-6.2 2.1-.5 2.3 3.6 0 4 .2 2.7 1.7-1.3 2.6-6.9 0-8.5 1.6-.6 2.6 6.7-.4 4.4 3.7-1.7 1.6 1.3 22-2.5 21-3.7 1.5-3 7.3-6.4 10.2-1.9 2.1-6.9 10.7-1.7 8.8l2.7-.9c-.8 1.2-5.2 5-3.2 5.7 1.5.6.8 6.9-.9 8.7-1.7 1.9-1.1 3.2 1.2 2.4 2-.7 2.3-.2 2.3 3.7 0 3.6-.5 4.6-2.9 5.8-1.7.7-2.7 1.6-2.4 2 .9 1 4-2.5 4.8-1.7.8.8.8 21.7 0 23.7-1.1 2.6 3 2.6 2.8 4.9.1 3.5 6.5 2.8 2.6 7-4.8 11.5.1 55.4 1.1 58.8 2.2 4.2 11.3 14.3 14.5 16 3.4 2.4 8.8-.2 9.6 4.6 1.3 4.6 5.1 8.2 5.8 13.4 7 19.6 12.7 31.5 10.4 61.8-2.2 22.5-.7 49.8-17.7 51.7-4.4.7-4.8.6-5.4-2.2-.7-2.9-4-6.1-6.3-8.1-7.8 3-15.8 6.6-21.3 3.4-3.4-1.8-3.6-1.8-9.5 1.9-7.4 4.8-8.5 6.1-9 10.9.9 8.1-17.8 6.2-14.2 17.6.5 3.3.2 5.3-.7 6-2.3 1.7-13.3 5.1-16.2 5.2-1.6 0-3.2.7-3.5 1.5-7.5 4.5-42 13.4-50.5 17.8V512h461.6z"/></svg>